/* XPM */
static char *_e5c9a25001744f79ac3840b0d3c1c24YwRXawZKd3FNMlNI[] = {
/* columns rows colors chars-per-pixel */
"32 32 157 2 ",
"   c #367752",
".  c #367B53",
"X  c #397C54",
"o  c #3C8456",
"O  c #3E8856",
"+  c #408557",
"@  c #408957",
"#  c #428658",
"$  c #448C59",
"%  c #45935A",
"&  c #4B955C",
"*  c #47995C",
"=  c #4C9B5D",
"-  c #50975E",
";  c #519C5F",
":  c #4FA15F",
">  c #51A15F",
",  c #559D60",
"<  c #589F61",
"1  c #54A461",
"2  c #5BA462",
"3  c #56A962",
"4  c #5CAC63",
"5  c #5EB165",
"6  c #62A665",
"7  c #63AD66",
"8  c #68AE67",
"9  c #68AF68",
"0  c #62B567",
"q  c #64B467",
"w  c #65B467",
"e  c #64B567",
"r  c #65B567",
"t  c #66B467",
"y  c #66B567",
"u  c #67B567",
"i  c #65B667",
"p  c #64B767",
"a  c #63B266",
"s  c #6AB467",
"d  c #65B568",
"f  c #66B468",
"g  c #66B768",
"h  c #67B768",
"j  c #66B368",
"k  c #68B568",
"l  c #69B568",
"z  c #68B668",
"x  c #69B668",
"c  c #69B768",
"v  c #69B769",
"b  c #6AB668",
"n  c #6AB768",
"m  c #6AB769",
"M  c #6AB569",
"N  c #65B868",
"B  c #66B868",
"V  c #67B968",
"C  c #67B969",
"Z  c #65BA68",
"A  c #67BA69",
"S  c #67B969",
"D  c #68B868",
"F  c #68B869",
"G  c #69B869",
"H  c #6BB868",
"J  c #6BB869",
"K  c #6BB969",
"L  c #68BB69",
"P  c #69BB69",
"I  c #6ABA69",
"U  c #6BBA69",
"Y  c #6BBA6A",
"T  c #6BBB6A",
"R  c #6CB869",
"E  c #6FB96B",
"W  c #6CBA6A",
"Q  c #6DBA6A",
"!  c #6CBB6A",
"~  c #6EBB6A",
"^  c #6FBB6A",
"/  c #68BC6A",
"(  c #6ABC6A",
")  c #6BBC6A",
"_  c #6CBC6A",
"`  c #6DBC6A",
"'  c #6CBC6B",
"]  c #6EBC6A",
"[  c #6EBC6B",
"{  c #6FBC6B",
"}  c #6EBD6B",
"|  c #6DBE6B",
" . c #6EBE6B",
".. c #6FBE6C",
"X. c #6FBF6C",
"o. c #6CBB6B",
"O. c #70B66B",
"+. c #70BB6B",
"@. c #70BC6B",
"#. c #71BC6B",
"$. c #72BD6B",
"%. c #71BD6C",
"&. c #73BC6C",
"*. c #72BD6C",
"=. c #70BE6C",
"-. c #71BE6C",
";. c #70BF6C",
":. c #72BE6C",
">. c #73BE6C",
",. c #72BF6C",
"<. c #73BF6C",
"1. c #75BE6D",
"2. c #75BF6D",
"3. c #73BC6D",
"4. c #7ABE6F",
"5. c #6FC16C",
"6. c #71C06C",
"7. c #73C06C",
"8. c #73C16D",
"9. c #73C26D",
"0. c #74C06C",
"q. c #74C06D",
"w. c #75C06D",
"e. c #75C16D",
"r. c #76C06D",
"t. c #74C26D",
"y. c #75C26D",
"u. c #77C06E",
"i. c #74C26E",
"p. c #74C36E",
"a. c #76C36E",
"s. c #77C36E",
"d. c #74C26E",
"f. c #78C06D",
"g. c #78C16E",
"h. c #7AC06E",
"j. c #7BC06F",
"k. c #7CC16F",
"l. c #78C46F",
"z. c #79C46F",
"x. c #78C56F",
"c. c #79C56F",
"v. c #7AC26F",
"b. c #7DC170",
"n. c #7DC370",
"m. c #79C570",
"M. c #7AC570",
"N. c #7CC470",
"B. c #7EC470",
"V. c #7CC570",
"C. c #7EC871",
"Z. c #80C771",
"A. c #82C572",
"S. c #81C972",
"D. c #82C872",
"F. c #83CA73",
"G. c #89CD75",
/* pixels */
"O O O * % = * = > > 4 > a > i H > > 4 > 4 > 5 5 > > > 4 > : : = ",
"O O % = * = : 3 4 5 a 4 5 i > a H a 5 0 a s 5 > 5 5 > : > : = : ",
"% & = = : : : 3 3 4 w a u L i H 5 0 5 4 a L 5 4 5 > 4 5 = * : > ",
"% & * 1 1 : 3 5 a w s E 5 > H $.5 0 p L s L w 5 > 0 > > : : * ; ",
"% = = 1 3 4 a a a w s ] ] ] @.@.H P 6.0.` y.@.w a 4 4 4 > > : O ",
"= * = 1 1 3 1 3 5 E E L &.@.] j.y.` $.P H Z.z.] L L w 5 5 : > : ",
"$ * > 1 1 3 3 5 0 @.] &.Z Z ] ( P P ` P ` 0.@.] ` L 0 5 5 4 > > ",
"% = 3 3 4 5 0 ] @.j...Y &.8.8.] 6.6.s.9.6.0.V p L H 0 5 5 4 5 > ",
"= 1 1 1 3 4 Y &.1.b.r.1.8.8.8.5.( x.S.V.m.C.8.Z E L w 4 3 3 3 > ",
"= 1 : 3 1 4 Y E k.j.] ] ] ..z.r./ x.x.8.8.8.&.' 0 s E w 5 5 1 > ",
"= : 1 3 4 m w @.r.b.8.&.5.x.S.x.V.z.p.Z / Y ' Z 0 p L 0 0 > 4 > ",
"= = = 1 3 7 4 3 a &.( Z ] x.x.x.x.5.5.5.' 8./ Z w 5 a 3 4 1 > 3 ",
"& & 1 1 2 a 4 a Y f ....8.V.V.x.5.5.5.x.m.5.' ' Z 5 e 5 4 4 3 1 ",
"= : 1 1 3 a m Y f ..r.( 5.V.C.C.5.8.C.m.m.C.V.' Y ( f e Z 4 1 = ",
"1 2 > 1 4 f 7 f 0 E &.8.V.C.F.m.C.p.F.F.5.V.V.8.Z f 4 5 1 4 3 > ",
", ; 1 1 4 7 E f @.1.&.8.r.V.F.F.F.G.G.m.8...&.8.( Y Y 4 4 3 1 = ",
"- = 1 4 9 M j v E 1.r...&.1.z.S.C.C.C.m.m.i.i.i.3.a a a a 1 * : ",
", 1 2 4 7 7 7 v 1.m.C.&.8.G.G.V.C.C.F.m.' i.b.3.E v 7 5 2 1 = : ",
"- 1 1 7 4 2 9 M E &.m.A.B.m.k.F.C.C.C.i.' 3.4.3.m.E a E 5 1 : % ",
"& = = 2 4 7 M j E 9 4.G.A.b.1.A.m.V.&.&.E E 1.( M M 9 a 7 1 = % ",
"& - 3 1 2 M 7 j O.O.&.A.A.4.A.A.3.m.4.v E E E k 4 4 1 = 1 4 , = ",
"& = 3 - 2 2 2 7 &.&.E 4.4.b.b.A.4.3.3.M v E j a 4 : 1 1 = = 1 = ",
"$ - - , 2 7 9 E O.9 2 O.O.4.1.4.3.a 3.3.v 7 j 7 4 4 : = = , , = ",
"& = = 2 7 8 8 M j 7 4 9 4.&.M w a E 3.9 9 a v 9 7 4 = * = & $ % ",
"# & ; ; 2 4 2 9 7 s 7 w O.s s O.w M s 7 7 3 7 7 1 2 = % = % & $ ",
"$ O & & - 1 2 2 6 s 8 7 8 8 s 7 7 7 4 7 7 9 4 M 2 2 1 = % % $ $ ",
"$ $ - - , , 2 6 6 > 6 6 6 8 4 > 2 2 1 , 2 4 1 , : = & & o o o O ",
"# $ & - , < , < 6 6 > 6 7 2 6 s 7 2 7 ; = 2 2 & = & % % O o . . ",
"# # & & , - , 6 ; 8 ; ; 6 2 6 8 2 2 > ; , , & & = % = & O % o . ",
"  # # # - & < 6 6 6 6 & > 2 ; ; 2 < ; & = 2 = % $ O $ & O O $ o ",
"  X # # # - - & - 6 ; - 6 ; ; - ; ; 2 < , 2 , - $ O o $ O   X   ",
"X   X # # # & $ & - - ; ; ; < & ; % & ; & & % & & & $ X o . o   "
};
