/* XPM */
static char *result[] = {
/* columns rows colors chars-per-pixel */
"32 32 88 1 ",
"  c #377B53",
". c #3A7E55",
"X c #7A4E44",
"o c #6B5F47",
"O c #6B5F48",
"+ c #775647",
"@ c #795446",
"# c #765947",
"$ c #7B5649",
"% c #775A49",
"& c #7C5A4C",
"* c #7F5E50",
"= c #427F54",
"- c #6E6349",
"; c #73664C",
": c #78674E",
"> c #75694E",
", c #726750",
"< c #796C51",
"1 c #717151",
"2 c #787253",
"3 c #80574C",
"4 c #805D4F",
"5 c #805D50",
"6 c #836356",
"7 c #8A665C",
"8 c #8A6A5E",
"9 c #8C6E61",
"0 c #8E7165",
"q c #907367",
"w c #917569",
"e c #94796E",
"r c #977D72",
"t c #987F73",
"y c #3C8355",
"u c #3E8A56",
"i c #428557",
"p c #498357",
"a c #418B57",
"s c #438C59",
"d c #4A8F5B",
"f c #548E5C",
"g c #45935B",
"h c #4A955C",
"j c #46985B",
"k c #4C9B5D",
"l c #55925D",
"z c #5B955E",
"x c #519D5F",
"c c #6C8257",
"v c #6E8158",
"b c #708559",
"n c #62905A",
"m c #6A945D",
"M c #69985E",
"N c #4EA15F",
"B c #51A25F",
"V c #5D9760",
"C c #539E61",
"Z c #5D9960",
"A c #619B61",
"S c #719A60",
"D c #4FA260",
"F c #4EAA61",
"G c #54A561",
"H c #59A562",
"J c #56A962",
"K c #5CAC64",
"L c #57B164",
"P c #5DB266",
"I c #5EB968",
"U c #62A461",
"Y c #6BA463",
"T c #63AC66",
"R c #65AF68",
"E c #63B166",
"W c #64B468",
"Q c #69B569",
"! c #64BA69",
"~ c #70BC6F",
"^ c #9B8277",
"/ c #9D847A",
"( c #A0877E",
") c #A1897F",
"_ c #A48D83",
"` c #A59086",
"' c #A79288",
"] c #A99389",
/* pixels */
"ugggkkkNGGKLUv:%%:vzPBBBEBBBBBBN",
"sgjjkNBKKPKc#@@@$@@%bQ~PBPLBBBNj",
"jkNNBBBPKY:X&q9$@qw&X:YPEKBBLBjN",
"kkGGBPB!A+X@8]w@@w]8@@#mLPEKBBBj",
"kkBBPW!m@&r*7_0@@q`84e&@m!EKPPBB",
"jBKGBBn@@r_&9'w@@q'8&_^@@S!EEBBB",
"jBKJLn$@&/_&7'0+@q_8&)/&@@Y!PEPB",
"BKBPT#&9+t_&9_0@@q_8&)/#9&#YPEBP",
"BBKJ1@tr@/_&7'w@@w`8&)/@e^X2LBLB",
"BBJJ-6'w@/_&9_w@@w`9&)/@w'7:QE!B",
"NHHP>7'w@/(&7`0@@q`8&)/@w`7>!QBB",
"jkBP>7'w@t_&9_w@@q`8&)(@w'7;LBPB",
"kBDK>7`w$/(&7'w@@w`8&)/#w`7-EPBE",
"GHGK;7`w@/_&9_0@X0`8&)/@w`7;!Q!B",
"HkGK>7'w@/_&7'w@@w`8&)($w'7;WPBE",
"GCHK-7_w@/(&7_w@@w)8&(^#w)7;EBEB",
"jKHW<@&&+$&$$&&+@$&$$&$&$&@<QQTk",
"HTKT,$*&$45+&5&+#34&$4&@&4@>TBKB",
"GHRK;7`w+/_$7`0@@q`8&)/@w`8;~EBN",
"hkHK;7'w@(_&9_0@@w'8&)/@w`7;QEHx",
"CGGK;7`w@/_&9`w@@q`8&)/$w`8-DGHG",
"GCCH;7`w@/_&7`w@@q`8&)(@w`7-GkhG",
"kCCK;7_w@((&8`0@Xq`8&)/#w'7-DkCC",
"kCUR:7'w@t_&7`w@@q`8&)/#w`7-gjgh",
"hkCH,7_w$^)&8`w@Xq_9+_($w`7%jkgh",
"dCCC;7'w$/)&7`0@@w_9&_/+w`7;Dghg",
"dChCO7'w$^)&8_w@+w_9&_/+w`8Ohuyy",
"dhCC;9'w$/_&9'w$@w'9@_/+w]8Osau ",
"dddC,&65$66$565+@56&$66+56&;jsga",
"sssC,X+$&+@$$++++$++$++&$+X,hsyi",
".iysfffVZZlzAzzlzlAAVVZffp==au y",
"..isshshjhlCCCCgxggCkkgghhhayy ."
};
