/* XPM */
static char *_70752b3694443b6daa6d7ea58365893xHDoqtaciaXlSCW2[] = {
/* columns rows colors chars-per-pixel */
"32 32 205 2 ",
"   c #140B12",
".  c #4B3E20",
"X  c #443F37",
"o  c #755628",
"O  c #735934",
"+  c #5E703E",
"@  c #536539",
"#  c #7E622A",
"$  c #766C31",
"%  c #63723E",
"&  c #757A3E",
"*  c #6C3649",
"=  c #357C52",
"-  c #59544A",
";  c #6B5E45",
":  c #477B4B",
">  c #527441",
",  c #6D7E42",
"<  c #7E7C40",
"1  c #6A6855",
"2  c #73706D",
"3  c #915B1C",
"4  c #A85E1D",
"5  c #AC6D1E",
"6  c #B76C0A",
"7  c #885E26",
"8  c #8E6327",
"9  c #946A2A",
"0  c #9C6424",
"q  c #847A39",
"w  c #897535",
"e  c #947531",
"r  c #9C7A33",
"t  c #967934",
"y  c #986C34",
"u  c #A56C24",
"i  c #AB722C",
"p  c #A77329",
"a  c #B37324",
"s  c #BC7A25",
"d  c #B4772C",
"f  c #B47B2C",
"g  c #BB7D2C",
"h  c #B97526",
"j  c #AB6E3F",
"k  c #A97D35",
"l  c #B27B32",
"z  c #CC7C19",
"x  c #C27D23",
"c  c #CC7F29",
"v  c #C87B26",
"b  c #906F58",
"n  c #AA7544",
"m  c #3A8455",
"M  c #3D8A56",
"N  c #3B8C58",
"B  c #368254",
"V  c #4E814D",
"C  c #5C8C4D",
"Z  c #56844C",
"A  c #418656",
"S  c #418C57",
"D  c #438D59",
"F  c #4D8955",
"G  c #45945A",
"H  c #4B955C",
"J  c #469A5C",
"K  c #4C9C5D",
"L  c #479357",
"P  c #559156",
"I  c #519D5E",
"U  c #599C5B",
"Y  c #53955A",
"T  c #67894A",
"R  c #7C8441",
"E  c #748A44",
"W  c #73934E",
"Q  c #7C914C",
"!  c #749345",
"~  c #618F50",
"^  c #6C9150",
"/  c #6A9B56",
"(  c #619957",
")  c #769652",
"_  c #769C55",
"`  c #4EA15F",
"'  c #52A25F",
"]  c #5EA75D",
"[  c #58B25F",
"{  c #62A55F",
"}  c #78A959",
"|  c #4B9C61",
" . c #549E60",
".. c #699764",
"X. c #7E8571",
"o. c #759B68",
"O. c #4EA664",
"+. c #53A561",
"@. c #5BA562",
"#. c #55AA62",
"$. c #5BAC63",
"%. c #5EB266",
"&. c #5FB569",
"*. c #59B566",
"=. c #61A563",
"-. c #62AD64",
";. c #6BAA62",
":. c #69A661",
">. c #63B366",
",. c #65B569",
"<. c #6AB669",
"1. c #65BA6A",
"2. c #6BBA6A",
"3. c #67B966",
"4. c #73BC6B",
"5. c #76B365",
"6. c #67BF70",
"7. c #7FB971",
"8. c #77A165",
"9. c #6DC26C",
"0. c #66C068",
"q. c #74C26E",
"w. c #7AC46F",
"e. c #6DC474",
"r. c #73C572",
"t. c #7BC672",
"y. c #77CB74",
"u. c #79D279",
"i. c #998138",
"p. c #9A873C",
"a. c #BE802D",
"s. c #A68638",
"d. c #B48133",
"f. c #BA833A",
"g. c #CD8226",
"h. c #C4842D",
"j. c #CC842A",
"k. c #C9852A",
"l. c #D28423",
"z. c #D1842A",
"x. c #D48B2D",
"c. c #DA8B2B",
"v. c #DA8925",
"b. c #DE922E",
"n. c #C18536",
"m. c #E6902B",
"M. c #868742",
"N. c #83944D",
"B. c #9B805D",
"V. c #B48140",
"C. c #AF8C5A",
"Z. c #948668",
"A. c #8F8E7C",
"S. c #A68D64",
"D. c #B9986C",
"F. c #B48278",
"G. c #B39E79",
"H. c #A4926B",
"J. c #85A171",
"K. c #BFA26F",
"L. c #BBA070",
"P. c #ABA37A",
"I. c #C58C41",
"U. c #C89B5C",
"Y. c #C99E64",
"T. c #C2A672",
"R. c #81C873",
"E. c #B07F83",
"W. c #9A9285",
"Q. c #A18E81",
"!. c #BB918F",
"~. c #B6AE90",
"^. c #C48F97",
"/. c #CD959D",
"(. c #C98E89",
"). c #E2969E",
"_. c #D0BA8E",
"`. c #C6B691",
"'. c #D596A6",
"]. c #E59EAD",
"[. c #C3B8A8",
"{. c #EDAAB3",
"}. c #E4A3B4",
"|. c #F4AEBC",
" X c #F2B0BA",
".X c #E4A4AC",
"XX c #D6C399",
"oX c #CCC4A1",
"OX c #D7C6A6",
"+X c #DDD2AC",
"@X c #E5D9B2",
"#X c #E6DEBA",
"$X c #E2D3AC",
"%X c #EFE1B6",
"&X c #F1E2B6",
"*X c #F6E7BB",
"=X c #FBEABE",
"-X c #FAE7BF",
";X c #F0AEC1",
":X c #FFB0C3",
">X c #DCD2C3",
",X c #E1D3C0",
"<X c #F7EBC3",
"1X c #FCF2C8",
"2X c #F7FCFF",
/* pixels */
"m M M G G J ` ` ' ' $.#.E e #.,.%.' %.*.I C [ $.#.' ` #.` ` K K ",
"N N G J J ` ` ` $.[ >.U p a @ P %.&.#.T p j + #.$.#.#.' ` ` ` ' ",
"L G K ` ` ` ` #.$.-.,.E h 8 o O q I R h (.|.E.L &.#.' #.` J K ` ",
"G J K ' #.' #.*.%.,.1.% 5 f d i g.u g.F.;X{.]...*.[ $.' ` ` J ` ",
"G K K ' [ #.%.>.>.,.C 9 x.k.3 u a.b.i '.{.{..X..%.>.$.[ #.' ` J ",
"J J K ' +.#.' #.&.=.o d x.g.Z.f.k.l.n }.{.{.]...0.3.,.%.#.' ` ` ",
"G J ' #.' #.$.%.6.! F.~.z Y.2XC.l.x.n }..X X/.{ 9.2.>.&.%.$.' ' ",
"G J #.#.%.%.3.2.r.! OX>X6 #X2Xd.x.x.a.b ^.|.Q.%.2.2.>.%.$.#.#.#.",
"K ' +.#.$.$.<.4.t.} W.b g.2 [.l.I.x.c b |.}.o.0.2.2.3.$.[ #.#.#.",
"` ' +.#.#.$.<.4.4.5.; o j.X B.a.c c g !.:XH.3.9.,.2.2.>.$.$.#.' ",
"K ` ' #.$.,.>.<.<.$ H.- Z.+Xe 5 l x.d '.!.%.9.1.>.3.3.3.$.#.#.I ",
"J K ` +.#.%.] ] ] u U.A.`.oX. B.n v.O X.,.r.2.2.>.&.%.*.#.#.#.+.",
"H K ' +.#.>.%.>.1.W 0 OX1   * #Xf.t >.9.y.q.9.3.1.>.>.%.-.$.#.' ",
"K ' +.+.#.>.<.<.<.9.U Z.`.* ).P.3 ^ u.R.t.t.w.2.3.1.1.>.>.$.#.` ",
"' +.' ' $.>.<.,.,.9.;.u f.~.S.5 b.c N.u.q.w.t.q.2.3.>.%.#.$.#.` ",
"I ' #.@.$.>.<.<.4.2.i.z.a h.s c.j.x.z._ y.2.q.w.2.1.,.$.%.#.' K ",
"K | @.$.-.<.<.<.e._ g.f.S.f.K.k.x.x.x.a.5.r.4.w.2.,.>.<.-.#.K K ",
"| +.$.-.-.-.,.<.2.s.v.f.+X_.%Xn.i f x.c.p.e.R.4.4.2.>.>.#.#.K K ",
"K +.@.$.$.$.-.6.) j.c.r @X=X<XT.g.b M.c z.N.2.r.q.4.>.<.$.+.K J ",
"H H | @.$.-.,./ l v.s.8.@X&X*X+Xa.h.{ ) h.v.r R { 2.-.>.-.#.K G ",
"H K +.+.$.^ w h.c.p.4.7.@X*X%X<XK.l.d.' d.l.v 8 ] $.#.' #.#.I K ",
"H |  .I $.> 4 h.v ) e.:.XX=X%X*X+Xd.v.9 r / W T #.#.#.' K ' ' K ",
"D K I +.#...) :.Q E ,.@.~.=X%X&X*XL.k.g.T 1./ R , : J ` K K K I ",
"G H I @.-.-.,.<.,.%.-.-.J.=X&X&X*XXXa.v.9 $ & / -.( G J K H G G ",
"S G | K @.$.=.-.-.,.-.<.~ !.1X&X1X`.x c.e  .&.,.$.$.` J G G G G ",
"S N H H I  .@.=.-.-.-.,.W a G.+XXXI.z.x.k #.-.-.@.@.` K G G S M ",
"A D |  . . .@.@.=.-.=.$.M.v.k.g 8 p c.x.g U @.+.O.K G G M B m m ",
"A D H Y  . . .@.@.@.@.#.i.x.x.t #.Y t c.j.~ O.I H K G G N B = B ",
"= D H H Y Y  .=.@.=.#.F f c.t +.=.@.| q c.r C G J G J G S M m B ",
"= = D D | |  .@.=.@.^ k c.h.P +.@.] +.N d m.j.r V M L H M M M m ",
"= = m A A H  .H  .P 7 d g q I H  . .I  ., p g 0 @ N m M m = = = ",
"= = = A A D H D H H A V F |  .H H G K I | S : : G G M m m = = = "
};
