/* XPM */
static char *_53b061a7b6e44f8fb87d1e1b0a8455d7AuRfVANIFRveTYe[] = {
/* columns rows colors chars-per-pixel */
"32 32 202 2 ",
"   c #140B12",
".  c #4B3E20",
"X  c #443F37",
"o  c #6E542D",
"O  c #765628",
"+  c #775E3A",
"@  c #5B6C3D",
"#  c #5A713D",
"$  c #7E622A",
"%  c #716A30",
"&  c #64713C",
"*  c #797A3D",
"=  c #6C3649",
"-  c #357C52",
";  c #58554A",
":  c #6C5F45",
">  c #487B4B",
",  c #507341",
"<  c #6C7C42",
"1  c #767E41",
"2  c #6A6855",
"3  c #72706D",
"4  c #8F591C",
"5  c #915D1A",
"6  c #AA5F1E",
"7  c #AC6D1E",
"8  c #B76C0A",
"9  c #9A5F21",
"0  c #895E26",
"q  c #8F6428",
"w  c #996826",
"e  c #806F33",
"r  c #887938",
"t  c #957531",
"y  c #9B7631",
"u  c #957D35",
"i  c #9B7C35",
"p  c #997238",
"a  c #986C34",
"s  c #A76D25",
"d  c #AB722B",
"f  c #A4742A",
"g  c #B37225",
"h  c #BC7A25",
"j  c #B4772C",
"k  c #B47B2B",
"l  c #BC7D2C",
"z  c #B97627",
"x  c #AB6E3F",
"c  c #A77D35",
"v  c #B27B32",
"b  c #CC7C19",
"n  c #C27D23",
"m  c #CB7E27",
"M  c #CB7F29",
"N  c #C87A26",
"B  c #8F6F58",
"V  c #AA7545",
"C  c #658A3E",
"Z  c #3A8555",
"A  c #3D8A56",
"S  c #3A8857",
"D  c #4D814C",
"F  c #5B8B4C",
"G  c #408756",
"H  c #418C57",
"J  c #4B8B55",
"K  c #438D59",
"L  c #45945B",
"P  c #4A955C",
"I  c #469A5D",
"U  c #4C9C5D",
"Y  c #489357",
"T  c #53945B",
"R  c #529D5E",
"E  c #5B9D5B",
"W  c #539154",
"Q  c #678A4C",
"!  c #7C8A44",
"~  c #788644",
"^  c #75934A",
"/  c #648E50",
"(  c #669153",
")  c #679C57",
"_  c #6B9956",
"`  c #779954",
"'  c #4EA15F",
"]  c #51A25F",
"[  c #5BA65D",
"{  c #6EA856",
"}  c #4A9A61",
"|  c #549E60",
" . c #679662",
".. c #7D9D6D",
"X. c #7D8471",
"o. c #4DA260",
"O. c #4EA964",
"+. c #53A561",
"@. c #5BA562",
"#. c #56AA62",
"$. c #5CAC63",
"%. c #5AAC6A",
"&. c #55B065",
"*. c #5EB265",
"=. c #5FB66C",
"-. c #56B168",
";. c #63A561",
":. c #62AE65",
">. c #6BAD64",
",. c #6CA966",
"<. c #63B366",
"1. c #69B366",
"2. c #64B569",
"3. c #69B669",
"4. c #66B96A",
"5. c #6BBB6A",
"6. c #73BD6B",
"7. c #73B666",
"8. c #6ABE70",
"9. c #6CC26C",
"0. c #67C26F",
"q. c #75C16D",
"w. c #78C26E",
"e. c #68C271",
"r. c #74C774",
"t. c #7DC572",
"y. c #79C974",
"u. c #7BD179",
"i. c #99843A",
"p. c #BE802D",
"a. c #A48637",
"s. c #B68233",
"d. c #BA833A",
"f. c #CC8325",
"g. c #C4842D",
"h. c #CC842A",
"j. c #CE882C",
"k. c #C48126",
"l. c #D18423",
"z. c #D1842A",
"x. c #D48B2D",
"c. c #DA8B2B",
"v. c #DA8925",
"b. c #DE922E",
"n. c #C18536",
"m. c #E48C2A",
"M. c #858542",
"N. c #84944C",
"B. c #9B805C",
"V. c #B48140",
"C. c #AF8C5A",
"Z. c #948669",
"A. c #8F8E7C",
"S. c #A68D64",
"D. c #BA976B",
"F. c #B48279",
"G. c #B39E79",
"H. c #A4926B",
"J. c #BBA070",
"K. c #ABA37A",
"L. c #C58C41",
"P. c #C99B5C",
"I. c #CA9E65",
"U. c #C0A26F",
"Y. c #C2A672",
"T. c #B17F83",
"R. c #9B9285",
"E. c #A48F83",
"W. c #BB918F",
"Q. c #B6AE90",
"!. c #C48F98",
"~. c #CD959D",
"^. c #CA8E89",
"/. c #E2969E",
"(. c #CAB78B",
"). c #C6BA99",
"_. c #D596A6",
"`. c #E49EAD",
"'. c #C3B8A8",
"]. c #EDAAB3",
"[. c #E4A3B4",
"{. c #F4ADBB",
"}. c #F3B0BB",
"|. c #E4A4AC",
" X c #D6C399",
".X c #CCC4A1",
"XX c #D7C6A6",
"oX c #DDD2AC",
"OX c #E5D8B2",
"+X c #E5DABB",
"@X c #E2D3AC",
"#X c #EFE1B6",
"$X c #F1E1B6",
"%X c #F6E7BB",
"&X c #FBEABE",
"*X c #F0AEC0",
"=X c #FFB0C3",
"-X c #DCD2C2",
";X c #F7EBC2",
":X c #FBE7C0",
">X c #FCF2C8",
",X c #F7FCFF",
/* pixels */
"S A A L I I I ' +.+.F E &.$.$.2.*.] t ~ &.#.$.$.[ O.] #.] ' ' U ",
"A A L U I ' ' ] #.@ x f Q -.4.*.W , g f [ 4.*.$.&.] ] O.] ' U ' ",
"L L I U ' ' ] &.T T.*X^.z ! E r o o 0 n ! 4.*.$.*.[ #.#.' ' ' ' ",
"L I U ] ] ] &.*. .[.].*XF.b s h.d j j 7 & 4.2.*.$.$.#.] ' ' I U ",
"L I U ] [ #.<.*. .`.].]._.v b.l s 4 h.x.w / 6.2.*.<.&.[ ] ] ' I ",
"I I ' ] &.#.[ &.) `.].].[.V x.h.V.B m c.j O 6.5.3.4.2.<.&.' ' ' ",
"L L ' #.#.[ &.*.E ~.{.[.[.V x.z.D.,XU.b Q.D.^ e.5.5.2.<.*.#.] ] ",
"L U #.#.&.*.<.9.1.E.{.!.B l x.z.d.,XOX8 -XXXQ 4.5.3.4.*.&.[ &.] ",
"' ' +.#.#.:.3.6.q...`.}.B M L.b.f.'.3 l.B R.{ 9.5.5.4.*.[ [ [ ] ",
"' ] +.#.#.$.3.q.t.6.A.=XW.z z.l p.B.X l.O : 7.3.<.4.7.4.*.&.&.] ",
"U ' +.#.$.2.2.5.w.t.7.W._.j x.j 7 w oXZ.; S.% <.<.<.5.*.*.] [ ] ",
"I U U +.#.<.$.$.2.7.9.<.X.+ v.c S.. .X).A.P.w @.*.$.*.*.&.#.O.#.",
"P U ] +.#.<.*.<.3.3.5.9.9.3.i d.#X=   2 XXw ^ 0.4.<.<.*.*.[ #.#.",
"R ] +.+.#.1.3.3.4.6.q.9.w.u._ 4 K./.= Q.Z.) y.9.4.4.4.<.<.&.] ' ",
"] +.] ] $.1.<.2.4.6.6.q.y.N.m b.7 H.Q.s.s 7.y.q.4.5.<.*.#.$.#.' ",
"R ] +.@.$.<.3.5.5.6.6.q.` m x.j.x.h g.7 l.i.4.w.9.3.2.$.*.#.] ' ",
"U U +.$.:.3.3.3.6.6.t.,.p.x.x.j.k.J.d.S.v z.` y.5.2.<.2.<.+.U U ",
"R +.$.:.:.:.:.3.6.t.r.a.c.x.j g n.#X(.oXd.c.a.8.6.3.1.:.#.+.' U ",
"U +.@.$.:.$.:.8.8.1.N.x.f.M.r m J.&X&XOXp c.h.` r.6.2.3.$.+.U I ",
"P P } @.$.:.3.;.~ y c.g.` ,.g.n.oX&X%XOX) a.m.k ) 2.2.:.<.+.U I ",
"P U +.+.%.:.:.;.q N z.d.,.s.b U.>X#X%X@X3.4.i.x.g.r F O.+.+.] I ",
"P } +.R @.:.:.2.Q N._ y w c.v OX%X#X&XXX;.0._ M g.6 @ O.U ] ] R ",
"L U R | @.;.F 1 M._ 2.Q h.f.G.;X$X#X&XQ.[ 4.~ ! E Q W o.R U R U ",
"K P } @.:.;.;.>.) * * q c.h  X%X#X$X&X..*.1.2.*.<.%.o.L I P L L ",
"K L } R @.:.$.:.<.2.@.y c.n (.>X%X>XG.F 2.$.:.>.@.+.' L L L L Y ",
"H H P P U +.@.;.;.1.%.c x.h.L. XoXG.g ^ *.:.:.:.#.+.] U L L H A ",
"H K P | | | @.@.@.:.E l x.c.j $ z m c.~ #.@.+.+.] U I L S Z Z S ",
"G K P T | | | @.@.%.( z.c.i E +.u c.x.u } @.R U R P P H S Z - Z ",
"> K P P } | |  .@.( i c.r +.:.1.} u c.k J #.U P I L I L A A S Z ",
"- - K K T } +.( c h.m.k } #.| R @.T h.c.c Q U L Y A H L A A Z Z ",
"- - G G K J } , 9 l d < | | | P | | r v g 0 J P H A Z A Z - Z - ",
"- - - - K K P K > > K | | | | P P L L J D G P P P L S Z Z - - - "
};
