/* XPM */
static char *_e82f9dddbc7485fcef1dc747e251f58oE0HEyr7QIhXsShX[] = {
/* columns rows colors chars-per-pixel */
"32 32 212 2 ",
"   c #7D123F",
".  c #3A2C5B",
"X  c #3B3258",
"o  c #3F3074",
"O  c #7A1943",
"+  c #542B53",
"@  c #7A2746",
"#  c #70324C",
"$  c #533162",
"%  c #702F7F",
"&  c #68387A",
"*  c #3C585E",
"=  c #594C58",
"-  c #475D59",
";  c #595A53",
":  c #78444D",
">  c #775B51",
",  c #6F5053",
"<  c #476757",
"1  c #4B7C5B",
"2  c #586E5E",
"3  c #6D6051",
"4  c #78665A",
"5  c #6B7052",
"6  c #4A5575",
"7  c #65476A",
"8  c #744C73",
"9  c #546967",
"0  c #5A7463",
"q  c #586A78",
"w  c #69726A",
"e  c #6D6F6B",
"r  c #87103F",
"t  c #B91B3F",
"y  c #8A0F44",
"u  c #871A44",
"i  c #931C44",
"p  c #991C46",
"a  c #9A0F41",
"s  c #AA1A43",
"d  c #BD1C43",
"f  c #B51944",
"g  c #882147",
"h  c #98284A",
"j  c #862955",
"k  c #A82649",
"l  c #B42144",
"z  c #BA2748",
"x  c #B83759",
"c  c #B23848",
"v  c #813A6F",
"b  c #A53467",
"n  c #CD1F48",
"m  c #D61B48",
"M  c #E7185A",
"N  c #C22549",
"B  c #DC2B4F",
"V  c #D5234A",
"C  c #C72852",
"Z  c #DA2A56",
"A  c #C53257",
"S  c #D13155",
"D  c #C13B66",
"F  c #E12963",
"G  c #954D53",
"H  c #A94157",
"J  c #876B58",
"K  c #966959",
"L  c #84745C",
"P  c #87684D",
"I  c #B9704F",
"U  c #86486B",
"Y  c #8C4A73",
"T  c #B64663",
"R  c #9A6D64",
"E  c #AE716D",
"W  c #CB4D56",
"Q  c #CD5373",
"!  c #3B8454",
"~  c #418C57",
"^  c #438E59",
"/  c #4D8D5B",
"(  c #459259",
")  c #4B945B",
"_  c #479B5B",
"`  c #4D9A5D",
"'  c #529C5E",
"]  c #52975F",
"[  c #57875D",
"{  c #67895A",
"}  c #4EA15E",
"|  c #53A35F",
" . c #58A65F",
".. c #598665",
"X. c #549C60",
"o. c #589E62",
"O. c #4D9960",
"+. c #7B8466",
"@. c #649C62",
"#. c #688D79",
"$. c #639776",
"%. c #54A461",
"&. c #5BA463",
"*. c #56A962",
"=. c #5CAC63",
"-. c #5DB164",
";. c #5AB168",
":. c #62A666",
">. c #6BA464",
",. c #62AC65",
"<. c #64AA69",
"1. c #6BAD6A",
"2. c #66A968",
"3. c #75A866",
"4. c #63B366",
"5. c #6AB466",
"6. c #66B966",
"7. c #6BBB66",
"8. c #66B569",
"9. c #6BB56A",
"0. c #65B969",
"q. c #6CBB6B",
"w. c #71B46C",
"e. c #73BD6C",
"r. c #79BC6A",
"t. c #7BBA67",
"y. c #6BA772",
"u. c #72AA77",
"i. c #77BB78",
"p. c #6DC46C",
"a. c #6DC76C",
"s. c #75C16E",
"d. c #73C36C",
"f. c #7BC36E",
"g. c #75CB6C",
"h. c #7BCC6D",
"j. c #7DC267",
"k. c #74C573",
"l. c #7CC471",
"z. c #73CB71",
"x. c #7DCD73",
"c. c #74D66D",
"v. c #878A5E",
"b. c #ACAB5E",
"n. c #BFA154",
"m. c #939966",
"M. c #879863",
"N. c #BE9267",
"B. c #84B36A",
"V. c #85B567",
"C. c #97AD61",
"Z. c #A8AB64",
"A. c #C08759",
"S. c #E68854",
"D. c #C6AB5D",
"F. c #DCB25F",
"G. c #C09C66",
"H. c #E08467",
"J. c #D2B660",
"K. c #E1A077",
"L. c #83C573",
"P. c #D0C866",
"I. c #F5CB63",
"U. c #3B3B8A",
"Y. c #463D85",
"T. c #6F3A89",
"R. c #763B87",
"E. c #6D3995",
"W. c #2C4285",
"Q. c #4B5A98",
"!. c #4B528E",
"~. c #6F428F",
"^. c #6F4E93",
"/. c #725494",
"(. c #526682",
"). c #5C7A81",
"_. c #71728A",
"`. c #6762A2",
"'. c #802C80",
"]. c #853489",
"[. c #993A87",
"{. c #A53A8C",
"}. c #B23E8C",
"|. c #B93E92",
" X c #89448B",
".X c #9A4892",
"XX c #B2438D",
"oX c #B76D81",
"OX c #DF7186",
"+X c #749D8D",
"@X c #73B780",
"#X c #86BE96",
"$X c #88AEB1",
"%X c #AFA098",
"&X c #DE8592",
"*X c #DA99A1",
"=X c #CFBBAE",
"-X c #CFAAA7",
";X c #E7A1AB",
":X c #87C097",
">X c #90C6A0",
",X c #E1CEBE",
"<X c #94BDC2",
"1X c #94B6D1",
"2X c #96C7DC",
"3X c #A4CFD5",
"4X c #A9CAE2",
"5X c #ACD9EF",
"6X c #B6D8E0",
"7X c #BAE5F8",
"8X c #CBD0CB",
"9X c #C1E2F2",
/* pixels */
"| _ ` } } %.} %.,.=.=.,.*.=.4.5.,. .*.=.*.%.=.*.%.=.-.| *.*.} } ",
"_ ` } =.4.=.=.=.,.=.=.=.4.8.=.4.4.=.-.-.*.;.4.5.0.4. .=.-.*.*.*.",
"` } %.-.*.*.=.=.4.8.4.q.4.-.q.5.=.-.4.*.=.=.-.8.8.-. .=.=.=.*.*.",
"} | *.*.4.4.8.q.q.8.=.&.4.4.e.7.-.4.4.-.8.q.<.8.q.=.4.-.=.-.4.*.",
"=.=.8.q.=.-.5.8.q.d.$.q d.e.s.s.0.q.q.p.L.9.(.w.f.s.q.-.-.=.=. .",
"*.*.%.-.=.4.8.q.8.p.q ).g.q.w.L.f.d.6.d.d.q.W.+Xh.l.d.q.q.0.4.4.",
"*.%.=.8.-.5.l.q.e.f.9 . [ 7.-.k.q.4.p.6.:.< $ ..h.e.q.q.d.6.0.4.",
"4.=.6.e.5.r.L.e.q.k.9.2 . 9 q.a.a.z.y.6 X X - 8.d.4.4.0.q.q.8.0.",
"4.4.:Xi.7.j.L.q.7.e.q.h.@.Y._.v.v.+.!.U.= w.g.j.l.d.q.q.0.q.e.7.",
"*.w.4X:Xt.L.f.e.q.q.p.q.e.q `.x A  XQ.+ r : w.d.e.s.0.d.8.4.8.q.",
"e.q.2X$X7.7.f.d.q.e.e.z.M.$ 8 A z Y 6 # z a , g.4.6.d.0.p.-.8.q.",
"4.@X9X5X%Xb.k.q.0.6.q.a.R a f d s t u s k p @ 3.d.4.0.0.0.-. .0.",
"4.8.3X7X8XA.V.p.q.p.7.z.K a # u u @ h z s h @ 5.p.8.q.d.4.-.-.4.",
"9.4.>X4X2XK.n.a.7.8.q.a.M.I N.k k n.W f h r > f.f.g.d.8.q.0.-.q.",
"4. .5.6X5X%XA.r.q.k.l.x.i.Y x k k c k g   : t.$.`._.u.g.p.-.q.*.",
",.w.e.#X3X1XH.Z.k.q.d.u./.R.x x b T k j U k.c.#.E.T.R.#.p.;.5.q.",
",.8.e.7.$X$Xm.A.L.0.9.^..X XoX# U A E %XU J >._.].^.[.% $.6.4.4.",
"9.8.4.5.$X+Xj.S.C.z.w ].b x ;X-X8X,X*X*XS t j  X{.~..X{.& <.q.4.",
",.,.8.7.y.u.d.D.J.8.& {.k C M OX=X&XF Z B n p Y }.&  XXXR.0 0.5.",
",.5.,.w.7.7.=.V.I.+.Y b O z V V z n m m S n i {.}.R. X|.{.7 5.-.",
",.r.,.<.w.9.5.>.H.C G 3 @ r f t p s l W n d h 7 [.R.].& v % o._ ",
" . .,.,.5.5.d.E m d   P : + L A C A k K 4 c h  .0 8 0  ...$ 1 | ",
"&.8.w.5.w.4.p.E V N p # + 3 i.Y U Q Z y 4 , # -.1.9 8.8.;.< [ } ",
"w.9.=.5.7.| -.@.z f r K B.9.{ e R C z m y J >.=.8.1.5.9.=.=.| ` ",
"2.&.,.:.,. .9.8.5 4 F.V.w.7.2.e 8 k f f i { 0.&.*.8.5.9.%.&.*.&.",
"| ' :.o.&.,.,.9.0.;.P.D.&.e...U.W.= h p $ 1 q.9.,.,.,.9.&.o.,.` ",
"&.&.:.:.2.:.' :.2.&.V.I.B.;.&.- $ < ; + * ] 8.:.' ` ` ' ' ' ( ) ",
"&.O.' &.'  .&. .:.2.&.J.Z.-.,.4.H 3 3 G ,.^ X.X.&.&.` ` ` ( ( ( ",
"] ' :.2.:.2.5.&.' :. .B.>.' ,.8.>.{ [  .' ` %.%.o.` ` ~ ` ` O.` ",
"] &.:.2.:.&.' :.( ^ ' ' &.&.X.o.&.8.' *./ ` X.} &.&.! ^ ( ^ ! ~ ",
"/ / ] ) o.' ] ] ' ) ] &.o.o.' ) ' X.:.o.X.X.&.X.%.o.^ ^ ^ ~ ! ! ",
"] ) / ~ ^ ) ] ( ] o.' ) ] &.] / ' ` ~ ` ` ` ( O.) ^ ) ` / ) ) ! "
};
