/* XPM */
static char *result[] = {
/* columns rows colors chars-per-pixel */
"32 32 162 2 ",
"   c #77513F",
".  c #2E7B4B",
"X  c #327F4D",
"o  c #3B7F54",
"O  c #377D53",
"+  c #7B4E44",
"@  c #765142",
"#  c #7A5246",
"$  c #7B5649",
"%  c #7D5A4D",
"&  c #7E5D53",
"*  c #76634D",
"=  c #77694C",
"-  c #7C6454",
";  c #746F52",
":  c #7B6A52",
">  c #7C6658",
",  c #607D53",
"<  c #737C56",
"1  c #805B4D",
"2  c #815E53",
"3  c #836255",
"4  c #856558",
"5  c #8A6B5E",
"6  c #8C6E62",
"7  c #8F7266",
"8  c #917367",
"9  c #917369",
"0  c #35814F",
"q  c #3D8455",
"w  c #3D8B51",
"e  c #3E9153",
"r  c #428D56",
"t  c #448C5A",
"y  c #498D5B",
"u  c #438457",
"i  c #449555",
"p  c #4B9657",
"a  c #439956",
"s  c #489D55",
"d  c #459259",
"f  c #4B955C",
"g  c #47995C",
"h  c #4C9B5C",
"j  c #529B5E",
"k  c #5A9D5D",
"l  c #688155",
"z  c #67945F",
"x  c #639A5E",
"c  c #4DA15B",
"v  c #57A756",
"b  c #53A35E",
"n  c #5BA35D",
"m  c #5AAC5E",
"M  c #59AC5A",
"N  c #77A94E",
"B  c #65AC5F",
"V  c #6AAD5B",
"C  c #78AC52",
"Z  c #409D64",
"A  c #489F64",
"S  c #569D61",
"D  c #599B64",
"F  c #5D9973",
"G  c #5E9979",
"H  c #659A60",
"J  c #6B9360",
"K  c #629D7A",
"L  c #46A467",
"P  c #4CA362",
"I  c #55A561",
"U  c #5CA462",
"Y  c #55AA63",
"T  c #5BAC63",
"R  c #55B366",
"E  c #5DB164",
"W  c #5BB068",
"Q  c #61A664",
"!  c #63AC65",
"~  c #6BAC66",
"^  c #65AD68",
"/  c #69AE69",
"(  c #67A368",
")  c #7BA667",
"_  c #71AD67",
"`  c #73AD69",
"'  c #7CAE6A",
"]  c #63B366",
"[  c #6AB467",
"{  c #65B468",
"}  c #6AB469",
"|  c #66BA69",
" . c #6CBC6A",
".. c #6ABB67",
"X. c #75B26A",
"o. c #7BB36C",
"O. c #73BC6C",
"+. c #79BF6E",
"@. c #73B763",
"#. c #64A27A",
"$. c #6BAC7D",
"%. c #69A47C",
"&. c #71AE7F",
"*. c #72AB72",
"=. c #70B07F",
"-. c #67C06D",
";. c #6EC26D",
":. c #74C36E",
">. c #79C36E",
",. c #77C671",
"<. c #7BC571",
"1. c #7DCA72",
"2. c #ACB437",
"3. c #B1B838",
"4. c #E8BF0E",
"5. c #F7BE0D",
"6. c #D5BD23",
"7. c #EAC00F",
"8. c #FFC300",
"9. c #FEC10A",
"0. c #F4C113",
"q. c #D4C222",
"w. c #84B454",
"e. c #82B46D",
"r. c #80B96E",
"t. c #81B970",
"y. c #88BC73",
"u. c #CFB57D",
"i. c #81C572",
"p. c #8CC075",
"a. c #84CB74",
"s. c #8ACD77",
"d. c #86D076",
"f. c #6FB180",
"g. c #72B181",
"h. c #7AB482",
"j. c #77B985",
"k. c #7DBA85",
"l. c #74A99C",
"z. c #7FB998",
"x. c #7EB0A2",
"c. c #8F929A",
"v. c #92919B",
"b. c #81BD87",
"n. c #A4B19E",
"m. c #99B2A8",
"M. c #91ABBC",
"N. c #A6BAC7",
"B. c #99A6E5",
"V. c #A4ABEB",
"C. c #A3A7EA",
"Z. c #B0C3CC",
"A. c #B5C4D5",
"S. c #B9C6D6",
"D. c #BBC5DB",
"F. c #BFC4E0",
"G. c #C0C3DE",
"H. c #C2C5E3",
"J. c #C6CBEA",
"K. c #C9CBEC",
"L. c #C4C8E4",
"P. c #CCCEF0",
/* pixels */
"r d d g g h c Y b n Y E T T } [ { b b T T T b Y T T Y Y c I Y j ",
"d g h j b b ] T T ] E Q ! ] T { { ! E E k |  .E T T T b Y b c b ",
"g A A Z P Y T T ] ^ < % _ ] ] ..T ] E U % < [ E E T T P L Y P h ",
"c Y C 2.V Y { ] ~ * + $ k E O.O.E ] | ~ $ + * ~ E T Y V 3.C P I ",
"g n 0.8.6.T ^ } = # 7 % ` | >.:.| | ;.o.% 7 # = | W W 6.8.0.! P ",
"P N 9.5.5.B R < # % 9 % X.:.O.>.O...:.X.% 9 % @ <  .O.0.9.9.w.P ",
"Y v 4.8.6.R H # 5 % 7 $ ~ :...|  . .;.X.% 7 % 7 # ) ;.q.8.7.M ] ",
"! l.m.u.m.z.= # 9 % 9 % o.:.O.O.:. .;.X.% 7 % 9 # = b.m.u.n.x.E ",
"s M.V.B.V.c.  % 7 % 9 % o.>.>.:.>.;.a.+.% 9 % 7 %   v.V.B.C.M.T ",
"c =.L.H.D.: 2 % 7 % 9 % ~ ;.:.;.| :.>.o.% 9 % 9 % 2 : D.L.L.j.m ",
"c $.K.J.G.& 7 2 7 % 9 % _ 1.>.1.,.>.1.X.% 7 % 9 % 8 % G.J.J.b.E ",
"c $.K.J.H.2 6 % 8 % 9 $ ~ :.>.1.1.>.:.O.% 7 % 7 & 8 & G.J.J.$.M ",
"c =.J.J.G.2 7 % 7 % 9 % o.1...>.:.:.:.} % 9 % 7 & 9 2 D.J.K.j.E ",
"c $.J.J.H.2 7 2 7 & 9 % o.1.i.a. .;.1.r.$ 9 % 9 % 6 & G.J.J.k.E ",
"a $.J.J.G.& 7 % 9 % & $ r.d.a.:.1.:.1.p.$ & % 9 % 7 & G.J.K.=.c ",
"c =.J.J.H.& 8 % 3 % # % o.>.i.a.a.s.d.p.% # $ 2 2 8 2 D.J.J.f.M ",
"m =.K.K.H.& 3 % # $ 8 $ o. .i.a.>.>.a.y.% 7 $ @ % - & G.L.K.h.m ",
"m $.K.K.G.2 @ $ 7 % 9 % o.a.s.+.>.a.a.r.% 9 % 6 # @ & G.J.J.g.s ",
"n h.J.K.H.& 5 1 8 % 9 % o.>.>.a.i.s.>.+.% 9 % 9 % 5 - G.J.K.k.m ",
"b k.K.J.G.& 9 % 7 % 9 $ t.1.>.i.>.<.:._ % 9 % 7 % 9 & G.J.J.b.T ",
"c &.J.J.G.& 7 % 7 % 9 1 e.O.i.i.O.i.O._ % 7 % 7 % 7 2 G.J.K.g.n ",
"i $.K.L.H.2 7 & 7 % 8 % ' >.O.i.+.O.:.X.% 9 % 9 1 6 & D.J.K.%.a ",
"p &.K.J.G.& 7 & 7 % 9 % ' i.+.+.<.} <.` % 9 % 7 % 8 & G.J.K.$.a ",
"j h.J.J.G.& 7 % 9 & 3 # ' O.O.! { ^ O.` # 4 % 9 % 7 2 D.J.J.%.d ",
"a K K.J.G.2 8 2 3 # $ < ^  .] O.{ } } Q < @ # 4 2 8 & D.K.K.#.e ",
"i K K.J.G.2 3 $ # ; H E U Q ! Q ! [ T T ] ( ; # $ 4 & G.K.K.K w ",
"p #.J.J.H.2 + * J ^ T Q / } j b ! U h T n T b z * + & G.K.K.G . ",
"i %.J.J.G.> l Q ! k Q ! ^ U } ^ ! U ! U g h I ! U , - G.J.J.#.X ",
"r K P.K.L.*.Y U Q U U U U ! Q ~ ! Q U S j S j f f g D G.P.P.K w ",
"r F A.S.Z.( Q Q / j h U U U j f j Q h f t j U h d r t N.A.A.G 0 ",
"o q y f f f f S U S f S Q S S A S U U I U j S k f r u q q q r O ",
"o y u t y f y t f f f S S Q U f S y h f j f f A d S A g t q O q "
};
