/* XPM */
static char *_b84e7c3caab4520f4eb2642a5f619bfPn8ccyV9HVTmwkNC[] = {
/* columns rows colors chars-per-pixel */
"32 32 198 2 ",
"   c #373833",
".  c #3C433C",
"X  c #395339",
"o  c #2F693E",
"O  c #3E673B",
"+  c #41533E",
"@  c #425D38",
"#  c #3E7949",
"$  c #3E694A",
"%  c #484B47",
"&  c #4C5A4C",
"*  c #455645",
"=  c #515451",
"-  c #5D5D5B",
";  c #575C56",
":  c #456243",
">  c #456B44",
",  c #486D48",
"<  c #4A6449",
"1  c #55674C",
"2  c #4B724C",
"3  c #427F49",
"4  c #4B7C4C",
"5  c #45714B",
"6  c #597B4C",
"7  c #5B6B5B",
"8  c #596757",
"9  c #547D54",
"0  c #587D56",
"q  c #597A59",
"w  c #60785C",
"e  c #5E7863",
"r  c #6C6D6B",
"t  c #676A66",
"y  c #6B7366",
"u  c #647C64",
"i  c #6A766D",
"p  c #777D6F",
"a  c #736E72",
"s  c #747373",
"d  c #7A7B75",
"f  c #7B767A",
"g  c #7D7D7B",
"h  c #747D74",
"j  c #9E7262",
"k  c #877974",
"l  c #3B814B",
"z  c #3F8A52",
"x  c #3A8054",
"c  c #48884D",
"v  c #47934D",
"b  c #4C8C51",
"n  c #428B59",
"m  c #458956",
"M  c #528352",
"N  c #568B58",
"B  c #588C56",
"V  c #439256",
"C  c #4D9452",
"Z  c #4B955C",
"A  c #4D9A5D",
"S  c #489757",
"D  c #509253",
"F  c #5A9C55",
"G  c #5A9358",
"H  c #529C5E",
"J  c #559856",
"K  c #578E4F",
"L  c #62995D",
"P  c #4FA35F",
"I  c #53A45E",
"U  c #5CA55D",
"Y  c #59A95A",
"T  c #5DB35E",
"R  c #61AD5D",
"E  c #6BAA5E",
"W  c #6AB75E",
"Q  c #4E9860",
"!  c #549D60",
"~  c #589F63",
"^  c #698667",
"/  c #71876C",
"(  c #6A936C",
")  c #659768",
"_  c #7F817F",
"`  c #768876",
"'  c #6C9572",
"]  c #779C79",
"[  c #6B8874",
"{  c #55A461",
"}  c #5AA562",
"|  c #56AA62",
" . c #5CAC63",
".. c #5DB364",
"X. c #63AD65",
"o. c #66AF6A",
"O. c #69A964",
"+. c #63B366",
"@. c #6BB466",
"#. c #65B866",
"$. c #6BB965",
"%. c #65B369",
"&. c #6AB569",
"*. c #66BB6B",
"=. c #6DBA6A",
"-. c #70B76B",
";. c #72BC6D",
":. c #79BD6E",
">. c #7AA879",
",. c #75BE70",
"<. c #79BD70",
"1. c #6CC16B",
"2. c #74C16D",
"3. c #7CC26F",
"4. c #7AC86F",
"5. c #77C470",
"6. c #7CC372",
"7. c #7CCB74",
"8. c #76CB72",
"9. c #7FD076",
"0. c #858F59",
"q. c #81817F",
"w. c #9E9B79",
"e. c #BB8675",
"r. c #82A37B",
"t. c #A3A569",
"y. c #ADAB4D",
"u. c #84C975",
"i. c #86CA77",
"p. c #87D278",
"a. c #7F7F87",
"s. c #827D80",
"d. c #7D8881",
"f. c #7D9583",
"g. c #848383",
"h. c #838D84",
"j. c #898A85",
"k. c #8C8C8A",
"l. c #8A8589",
"z. c #8D948D",
"x. c #91918E",
"c. c #938E91",
"v. c #949392",
"b. c #999996",
"n. c #9B9699",
"m. c #9D9D9B",
"M. c #999196",
"N. c #A19E9F",
"B. c #BC978D",
"V. c #85A487",
"C. c #9EA09C",
"Z. c #96A697",
"A. c #A1A19E",
"S. c #B9B388",
"D. c #9E9FA4",
"F. c #A49FA1",
"G. c #9DADA0",
"H. c #A4A4A2",
"J. c #A9A7A7",
"K. c #A7A9A5",
"L. c #A9A9A6",
"P. c #ABABAA",
"I. c #AAA5A8",
"U. c #ADB4AD",
"Y. c #A9B4AA",
"T. c #B2B3B3",
"R. c #BCB6BA",
"E. c #BDBCBB",
"W. c #B8B8B3",
"Q. c #B5ACA7",
"!. c #D59684",
"~. c #C3A69F",
"^. c #CAACA3",
"/. c #BFC2BF",
"(. c #C5C4BF",
"). c #C4BEC3",
"_. c #CBCAC5",
"`. c #CBCBCB",
"'. c #C7C5C7",
"]. c #D3CECD",
"[. c #CDD1CE",
"{. c #D3D3CD",
"}. c #D0CFD0",
"|. c #D3D4D2",
" X c #DBDAD5",
".X c #DCDCDA",
"XX c #D8D4D8",
"oX c #E1DEDD",
"OX c #E3E1DE",
"+X c #DEDEE0",
"@X c #E1DCE2",
"#X c #DCE2E1",
"$X c #ECEAEC",
"%X c #E5E4E5",
"&X c #ECF1F2",
"*X c #F6F2F5",
"=X c #FFFEFF",
"-X c #F8F5F7",
/* pixels */
"A A A I { P | I  . .+. .| X.%.6 1 K v Y I I I ..H e I  . .P { | ",
"P | | +.|  .+. . . . . .%.%.v g Q.x.Z.Z ..| ..C d./ T  ...|  .| ",
"P |  . .| X.%.&.%. .%.=.*.T 0 @X#X/.^.d.v *.V = M.8 I U b S ..| ",
"P .. .+.%.=.&.=.#.#.Y +. .( '.E.[.^.e.v.` D t - = ; v Z.oXY.N X.",
"+.X...@.@.%.+.;.=.@.#.=.F G.*XE.&XB.!.k m.v.c.g.k.y ^ %X|.R.'.] ",
"{  . . .*.$.-.*.@.=.=.3.%.>.-XXX+X+X'.`.g.N.d._ s L.g q.XXV.( N ",
"| %. ...-.3.;.;.=.+.=.*.1.G `.-X|.-XQ.k.b.m.b.s   - k.w.'.[.|.b.",
"..+.-.=.3.6.$.;.+.*.7.C 0 _ k.P./.i j k m.m.C.D.S.y.8 0.T.Y.>.>.",
"*.=.i.=.u.i.=.2.5.$.: s m.K.v.6 T B - b.A.m.m.v.p t.U.r a < H *.",
"=.B O.2.:.3.$.=.@.* l.I.C.n.8 -.O.q - b.A.m.b.k.a g.=XT.^.[ C *.",
"..( R.L 3.3.i.5.U q.P.A.b.r q.v.k.v.g - x.A.x.L.L.OX=X$XC.) #. .",
"..>.=X] $.=.2.=.1.0 s n.c.n.P.H.H.m.P.g q.L.x.J.=X$X'./ Y 1.*.| ",
"C Z.'.( T X.2.;.=.2.K : 1 y h k.m.m.m.m.A.m.q.s q.q.f 2 8.*...#.",
": f s M 1.;.6.;.$.=.9.4.p.W 1 g.b.m.v.b.m.m.A.J.F.N.s.M 1.#.%.*.",
"% L.g.b *.=.=.=.=.2.9.p.E < c.K.b.j._.m.q.k.d./ u w L 2.=.;.+.1.",
"% L.f 4 i.@.2.7.8.$.F > & v.H.N.j./..X_.L.O.=.$.#.#.2.7.2.=.,...",
"% H.b.% R 6.i.O.O + - g.J.H.N.k.W. X{.oX/ 2.u.8.2.3.@.;.2.:.;.+.",
"* v.K.k.& B @ . a n.J.H.A.x.x.R. X XoXj.F u.#.$.=.2.u.;.$.=.=.R ",
"C ; F.P.N.  r I.J.m.A.b.j.m._. X X{.q.F p.6.+.5.5.%.2.i.@.@.3.3.",
"*.c & s.r a P.m.m.A.k.k.(. X X X Xr.W 4.=.2.-.+.=.=.u.-.<.=.;.-.",
"@.o.o.6   v.C.m.A.k.m. X X{. XoX` R 6.6.;.$.@.<.<.;.;.=.%. .%.X.",
"%.&.-.7.: c.G.n.A.q.{. X{. XoXp K u.;.+.-.;.=.-.-.@.@.-.=.X.P S ",
"o.O.-.u.4 k J.b.J.q.A.OXOX_.t a / , Y -.<.X.;.<. .=. .} ,.+.I P ",
"X.-.=. .D 8 H.m.A.v.d {.v.- g.K.F.l.1 O.u.X.I =. .<.;. .<.%.&. .",
"X.b 9 8 e d b.D.m.H.r X . h.K.m.b.J.c.5 *.X.I | ! { %.X.;.} U ! ",
"c k.XXs.J.K.C.m.m.P.i F -.M g m.C.I.7 l X.=.-.X.%.X.X.I :.o.A } ",
"> +X=XT.g s.v.n.c.s 8 O.@.q n.H.N.7 c | { } } } X.X.A A A { A S ",
"> +X=X$XN b 5 < , c } X.# t v.g.& 3 b 9 O.H Z A A !  .~ Z Q A S ",
"c [.=X=XZ.L H | X.X.X.c h.%X'.[.XX|.P.n.9 A A A {  .! Q Z Q V ! ",
"D U.=X.X`.c.e V Z H o.b z.=X=X=X=X%X'.$Xf.m Q A } } Q Q V n z z ",
"Z [ =X%XE.%Xe H Z H } ~ c 8 Y.+X*X=X*Xj.) A A ~ ~ } ~ ! ~ Z n x ",
"Q # d.T.i [ m A Z ~ ~ ~ { Q $ 5 ' V.[ l V ~ } Q Z Q n Q Q ! z n "
};
