/* XPM */
static char *fa525b16a0364662f012c116bcfe1cc6OvtbTEcZ7imaMkJt[] = {
/* columns rows colors chars-per-pixel */
"32 32 200 2 ",
"   c #3D3C2F",
".  c #323533",
"X  c #395737",
"o  c #374B38",
"O  c #3D693A",
"+  c #40413E",
"@  c #42533D",
"#  c #3A6142",
"$  c #3F694A",
"%  c #367949",
"&  c #454A44",
"*  c #4B4B4A",
"=  c #485A48",
"-  c #515D4F",
";  c #4F5050",
":  c #5C5D5A",
">  c #575955",
",  c #426243",
"<  c #4B6C4D",
"1  c #486746",
"2  c #437345",
"3  c #487A4A",
"4  c #5A7B4D",
"5  c #586457",
"6  c #4E7B51",
"7  c #4A7351",
"8  c #587B57",
"9  c #5C6C46",
"0  c #607D5A",
"q  c #5F7861",
"w  c #6C6C6B",
"e  c #646964",
"r  c #6B7D6C",
"t  c #687566",
"y  c #7C7A6F",
"u  c #736F72",
"i  c #747373",
"p  c #7B777A",
"a  c #7C7C7B",
"s  c #757C74",
"d  c #9F7363",
"f  c #817C7F",
"g  c #877974",
"h  c #3D8A51",
"j  c #3A834A",
"k  c #43864B",
"l  c #4A854D",
"z  c #4A984E",
"x  c #52944F",
"c  c #4C8554",
"v  c #4C8C50",
"b  c #448B57",
"n  c #548D55",
"m  c #58835A",
"M  c #4D9954",
"N  c #46945A",
"B  c #4C955C",
"V  c #4D9B5C",
"C  c #4B9454",
"Z  c #529352",
"A  c #5A9552",
"S  c #539C5E",
"D  c #5B9C5A",
"F  c #549956",
"G  c #54894E",
"H  c #618C5A",
"J  c #4DA25D",
"K  c #53A45E",
"L  c #5BA35A",
"P  c #57AB5B",
"I  c #59B35F",
"U  c #64A45B",
"Y  c #66AC5B",
"T  c #61B35D",
"R  c #5D8567",
"E  c #4D9D60",
"W  c #549D61",
"Q  c #599E61",
"!  c #5F9660",
"~  c #678769",
"^  c #728068",
"/  c #6A956B",
"(  c #7C8174",
")  c #7D807D",
"_  c #738175",
"`  c #779879",
"'  c #6A8F75",
"]  c #55A461",
"[  c #5CA462",
"{  c #56AB62",
"}  c #5BAC63",
"|  c #5EB164",
" . c #63A666",
".. c #63AC65",
"X. c #6AAD69",
"o. c #68AE67",
"O. c #70A46B",
"+. c #64B266",
"@. c #6AB466",
"#. c #65B966",
"$. c #68B966",
"%. c #65B468",
"&. c #6BB56A",
"*. c #66B969",
"=. c #6CBB6A",
"-. c #70B66B",
";. c #73BC6C",
":. c #79BF6F",
">. c #72A372",
",. c #6FBE70",
"<. c #79BE71",
"1. c #72BC70",
"2. c #6DC26C",
"3. c #74C26E",
"4. c #7AC16E",
"5. c #7BCA6F",
"6. c #74C371",
"7. c #7CC472",
"8. c #75C971",
"9. c #7CC872",
"0. c #7DD276",
"q. c #848F59",
"w. c #80817F",
"e. c #838E7E",
"r. c #82907B",
"t. c #9E9B79",
"y. c #BB8675",
"u. c #86A47D",
"i. c #A3A469",
"p. c #ADAB4D",
"a. c #83C473",
"s. c #84CB75",
"d. c #89CB77",
"f. c #86CF78",
"g. c #8FCB7A",
"h. c #88D57B",
"j. c #92D97C",
"k. c #817E84",
"l. c #7EA681",
"z. c #848483",
"x. c #8C8C8A",
"c. c #878886",
"v. c #8A978B",
"b. c #91918E",
"n. c #928C91",
"m. c #949392",
"M. c #989295",
"N. c #999996",
"B. c #9B969A",
"V. c #9D9D9B",
"C. c #A19F9F",
"Z. c #BC978E",
"A. c #86A289",
"S. c #9EA19D",
"D. c #99A89A",
"F. c #A1A19E",
"G. c #B8B388",
"H. c #9E9FA4",
"J. c #A29EA1",
"K. c #9EAEA0",
"L. c #A4A4A2",
"P. c #A9A7A6",
"I. c #A6A9A3",
"U. c #A9AAA7",
"Y. c #ACABAA",
"T. c #AAB5AB",
"R. c #B2B3B3",
"E. c #BCBCBB",
"W. c #BCB7B7",
"Q. c #B5ACA7",
"!. c #D59584",
"~. c #C2A69E",
"^. c #C0B9BF",
"/. c #CAACA3",
"(. c #BAC1BD",
"). c #C5C4BF",
"_. c #C3BEC3",
"`. c #C5C5C5",
"'. c #CBCAC5",
"]. c #C9C7C9",
"[. c #D2CDCC",
"{. c #CDD0CD",
"}. c #D3D2CD",
"|. c #D0CFD0",
" X c #D3D4D2",
".X c #DBDAD5",
"XX c #DCDCDA",
"oX c #D9D5D8",
"OX c #E2DEDD",
"+X c #E3E1DD",
"@X c #DEDEE0",
"#X c #E3DDE3",
"$X c #DCE2E1",
"%X c #EBE7EB",
"&X c #EDEBED",
"*X c #E5E4E5",
"=X c #ECF1F2",
"-X c #F6F2F5",
";X c #FEFEFE",
":X c #F8F3F6",
/* pixels */
"V V V J { V q V } { %.} { F Z 9 4 | K { K K K } P { { } } K { { ",
"J { } %.} { ' a C %.} | D K.n.Q.f Z =.} | { { +.*.%.{ } } K } { ",
"K { V c K L 5 B.- Z 2.F _ W.E.@X@X8 | | } | | @.=.*.} +.| } } { ",
"J c T.XXD.x : ; > e n _ m.y./. X^.`./ P *.| +.*.@.=.@.+.{ { } +.",
"` ].E. X+Xm t n.z.m.m.V.g !.Z.=XE.-XF.P 9.;.3.=.-.3.;.=.*.} +.@.",
"m ~ l.oX) a Y.i w.w.V.c.{.]..XOXoX-X` $.4.$.=.$.3.4.7.7.*.=.*.#.",
"v. X}.`.t.b.:   p m.B.b.x.Q.:XoX;X`.C =.2.=.$.=.3.4.2.6.*.*.6.*.",
">.>.T.Y.q.: p.G.V.C.C.C.g d ^ (.Y.x.l.5 Z 3.3.#.5.a.*.%.=.%.=.;.",
"*.D 5 u w T.i.y m.N.C.C.N.: Z T 3 b.P.B.i # @.7.4.s.5.=.#.=.=.$.",
"&.D ~ (.R.;Xk.u b.N.V.F.b.: t -.o.5 V.F.U.c.= 5.*.5.3.=.2. .n $.",
"} *.O.D.%X;X#XY.P.m.F.b.: f b.x.m.) w N.V.Y.s L 2.| #.8.S E./ I ",
"%.| @.z r ].&X:XP.b.U.w.a Y.F.C.L.Y.V.m.B.i m 8.7.a.| I A.;Xl.P ",
"+.} &.6.< p l.p i ) V.S.N.V.V.V.x.i t - , G 5.3.3.6.$.#./ ].D.F ",
"&.%.%.2.6 f V.L.U.F.V.V.N.m.C.N.z.< T 5.8.f.f.5.9.d.f.5.G u a , ",
"..;.+.@.+.Z 8 t r e.x.c.V.'.c.V.P.m.= Y j.j.6.7.3.3.s.8.n w.U.+ ",
"=.&.*.;.4.=.7.;.&.@.U F.'.+XE.e.V.F.b.- 1 Y 3.0.=.+.$.h.2 a Y.* ",
"+.@.=.&.3.-.a.7.*.6.2.^ +X}..XW.x.C.L.L.z.: @ O U s.3.Y & V.L.& ",
"&.;.-.-.=.:.7.<.3.=.s.U e.+X.X.XE.b.m.F.L.I.B.u o X H - x.I.m.o ",
"| +.@.P &.;.:.;.d.s.4.5.A r.}..X.X'.V.z.N.F.C.I.P.w . J.U.J.5 D ",
"..} +.@.&.=.:.<.7.d.4.a.a.T u..X.X.XXX).c.b.F.V.B.Y.u w z.= D 4.",
"&.} 1.u.;.7.;.7.s.a.a.u.5.5.T r.OX}.}.OX.XC.x.F.V.S.b.. 2 L =.} ",
"&.&.=.3.;.;.&.d.7.@.5.5.u.g.j.A y +X.X}.}.[.z.F.V.S.b.= 6.%.K N ",
"o.@.-.4.;.1.V :.;.;.4.-.;.o.4 ( i w `.+X+XI.w.L.V.L.k.2 6. .K J ",
" .X.@.} o.%.S ..T ;.a.;.o.- c.J.I.z.5 M.}.y m.F.V.P.5 z 7.%.,.} ",
"} X.o.[  .&...P -.1.X.4.< b.I.V.V.L.z.o X t L.V.S.N.s t 8 7 c ] ",
"o.[ K [ o. .P o.} K X.%.A w L.F.H.a 2 { M u Y.C.S.S.P.P.z.oXc.k ",
" .[ S  .[ [ ....[ } +.X.,.v 5 V.L.V.7 ] W 1 u M.B.m.c.a R.;X#X# ",
"B ..S S ..[ [ S o. . .L 6 ! c - z.m.e 3 1.B % # , < c c &X;XXX1 ",
"Q  .X.Q ..&.[ ] [ [ } R B.Y. XoX|.].%Xv.k ] W B ] ] b v.;X;X X3 ",
" .Q [ Q [ X.Q B B W L v.&X(.*X;X;X;X;Xv.j E E E ] r n.|.XX;XT.% ",
"B W E W Q  .W W B W [ ~ x.-X;X-X@XU.5 3 [ W E W ] ~ @X_.#X-XR j ",
"B B b b E W N B B [ ] V c ` l.' 7 % h E b W Q E E h ' u R.l.% N "
};
