/* XPM */
static char *result[] = {
/* columns rows colors chars-per-pixel */
"32 32 28 1 ",
"  c #BEBDC3",
". c #C7C6CB",
"X c #C9C7CD",
"o c #CAC9CE",
"O c #CDCCD3",
"+ c #D0CFD4",
"@ c #D2D2D6",
"# c #D5D4DA",
"$ c #D8D7DC",
"% c #DBDADE",
"& c #E0E0DF",
"* c #DDDDE2",
"= c #E0DFE4",
"- c #E3E2E5",
"; c #E8E9E7",
": c #E6E5E9",
"> c #E8E7EB",
", c #EBEAEC",
"< c #EFF0EF",
"1 c #EEEDF1",
"2 c #F0EFF3",
"3 c #F4F4F5",
"4 c #F8F7F7",
"5 c #F7F8F7",
"6 c #F8F8F7",
"7 c #F6F6F9",
"8 c #F8F7FA",
"9 c #FBFBFB",
/* pixels */
"3343#9997889*18898891*989889&398",
"----O-+#--*:.%-*@*--@.-*@**- $-*",
"645989#:93339738#,833873+832<31<",
";;;;>1O$,,,,,:=1.$>->->* 1:>1:-,",
",;,,,,,,-#,>>>,,11*#111;->>*.::,",
"33338738;#97373313*@3113323;O933",
";---@***%#-*-O#=***%-#O=**=%*@O*",
"9999#39999999*,9999991*979999*=9",
",%%#O#*****O=O#%$$*+%++*%*+@*++*",
"36<@9337272+7887873#699359%19999",
"3,&+3<,,11>O3;,;,1>o;1>>,1O*,>:1",
",&-==-##-***=-%@:-==:==X=-*---O>",
"696699;*983969,$9384938O278933O1",
",%%-@##@*%%@#%$O*$%%o%%+%%%o$%@-",
"6339;-96689=;9998993$999999%6999",
"3;,<#@3>;>,@%,;;;>;&.-;&&--o%-=;",
"1--:=-*+>--*=--o%-->>-;;O-;;;>;,",
"569979>*9899999#39787737@13333<<",
">%%O**$+**O$%$$O#*%@@***@**+@*%-",
"663%999999$29739999>-999999>;969",
",--o;---;>.*>*-;--:@O:**==>O@%#%",
"3,1,,>O1>>>>;*O1:1>,>1*@1;>,1-@<",
"633591$9799993%9978989:$93389;%9",
";&%#@*O%%*%O%#O***#O**@O*%@O%@+%",
"669>-999888#879389,$966999>-9999",
";->@@>*----X:-->>,%O,---;,O+>=-%",
"3,2<1>@,1>:;::O--:;->>-.>;-;:>,,",
"33337>#9789879@79896973@76499977",
">*O*=$@=*#@**%o%**@$*$%O$%@O%$*$",
"79#393838,#9339334#>333339:$9337",
"33%363349>%9334439#,936339**9333",
"833333433316333833:3663338;,9637"
};
